<?xml version="1.0" standalone="no"?>
<!DOCTYPE svg PUBLIC "-//W3C//DTD SVG 20010904//EN"
 "http://www.w3.org/TR/2001/REC-SVG-20010904/DTD/svg10.dtd">
<svg version="1.0" xmlns="http://www.w3.org/2000/svg"
 width="180.000000pt" height="180.000000pt" viewBox="0 0 180.000000 180.000000"
 preserveAspectRatio="xMidYMid meet">
<metadata>
Created by potrace 1.14, written by Peter Selinger 2001-2017
</metadata>
<g transform="translate(0.000000,180.000000) scale(0.100000,-0.100000)"
fill="#000000" stroke="none">
<path d="M0 900 l0 -900 900 0 900 0 0 900 0 900 -900 0 -900 0 0 -900z m300
320 c0 -35 -3 -40 -22 -40 -47 0 -53 -13 -58 -131 -5 -103 -7 -112 -30 -131
-17 -14 -21 -22 -12 -25 27 -10 42 -62 42 -148 0 -99 8 -121 50 -130 27 -6 30
-11 30 -44 l0 -38 -42 7 c-94 14 -110 39 -119 177 -6 109 -15 130 -57 135 -24
3 -27 8 -30 44 -3 39 -2 41 36 52 46 14 52 31 52 144 0 117 38 167 128 168 31
0 32 -1 32 -40z m828 -46 c55 -28 92 -74 92 -118 0 -24 -3 -26 -40 -26 -34 0
-42 4 -50 24 -14 38 -53 58 -111 58 -64 0 -103 -25 -107 -70 -5 -45 23 -66
125 -97 153 -46 199 -92 191 -190 -5 -63 -28 -96 -89 -129 -38 -21 -60 -26
-118 -26 -125 0 -191 44 -215 143 -6 27 -6 27 42 27 44 0 49 -2 59 -30 12 -32
62 -60 107 -60 37 0 105 30 116 51 15 27 12 60 -6 81 -10 10 -62 32 -118 50
-81 26 -109 40 -143 74 -39 37 -43 45 -43 88 0 26 6 59 14 74 50 95 185 130
294 76z m-398 -24 l0 -40 -130 0 -130 0 0 -85 0 -85 120 0 120 0 0 -40 0 -40
-120 0 -120 0 0 -125 0 -125 -50 0 -50 0 0 290 0 290 180 0 180 0 0 -40z
m1010 0 l0 -40 -90 0 -90 0 0 -250 0 -250 -45 0 -45 0 -2 248 -3 247 -87 3
-88 3 0 39 0 40 225 0 225 0 0 -40z"/>
</g>
</svg>
